<svg xmlns="http://www.w3.org/2000/svg" width="100%" viewBox="0 0 111 16" fill="none"><path fill-rule="evenodd" clip-rule="evenodd" d="M38.4307 1.15537C37.8986 1.33862 37.4251 1.61004 37.0101 1.96962H37.0112C36.5962 2.32919 36.1547 2.81656 35.6889 3.43071L27.1875 14.8847H31.8863L39.2077 4.92152C39.3832 4.68576 39.5466 4.51637 39.7 4.41137C39.8523 4.30736 40.0599 4.25486 40.3226 4.25486C40.5698 4.25486 40.7817 4.31033 40.9561 4.42128C41.1316 4.53222 41.284 4.69269 41.4153 4.9017L48.7798 14.8847H53.4344L45.0203 3.45052C44.5975 2.84924 44.1858 2.36882 43.7851 2.00924C43.3845 1.64966 42.9032 1.37131 42.3425 1.17518C41.7818 0.979048 41.1085 0.880981 40.3215 0.880981C39.5919 0.880981 38.9627 0.972114 38.4307 1.15537ZM9.8237 14.0304C10.2387 14.391 10.7123 14.6614 11.2443 14.8447H11.2432C11.7752 15.0279 12.4055 15.119 13.134 15.119C13.9199 15.119 14.5943 15.021 15.155 14.8248C15.7157 14.6287 16.197 14.3504 16.5976 13.9908C16.9983 13.6312 17.41 13.1508 17.8328 12.5495L26.2469 1.11536H21.5923L14.2278 11.0983C14.0965 11.3073 13.943 11.4678 13.7686 11.5787C13.5942 11.6897 13.3823 11.7452 13.1351 11.7452C12.8735 11.7452 12.666 11.6937 12.5125 11.5887C12.3591 11.4837 12.1946 11.3143 12.0202 11.0785L4.69882 1.11536H0L8.50137 12.5693C8.96716 13.1845 9.40868 13.6708 9.8237 14.0304ZM59.5532 11.863H75.8572C76.323 11.863 76.6696 11.765 76.8959 11.5688C77.121 11.3727 77.2347 11.0785 77.2347 10.6862C77.2347 10.294 77.1222 9.97997 76.8959 9.78384C76.6696 9.5877 76.3241 9.48964 75.8572 9.48964H63.9032C62.4021 9.48964 61.2298 9.11421 60.3843 8.36237C59.5388 7.61053 59.1172 6.56746 59.1172 5.23415C59.1172 3.90084 59.5399 2.93008 60.3843 2.20399C61.2287 1.47791 62.3877 1.11536 63.8591 1.11536H80.3375V4.13561H64.209C63.7421 4.13561 63.3899 4.2307 63.1493 4.4199C62.9087 4.61009 62.7884 4.90033 62.7884 5.29259C62.7884 5.7116 62.9087 6.01472 63.1493 6.20491C63.3899 6.39411 63.7575 6.4892 64.2531 6.4892H76.0769C77.6211 6.4892 78.8087 6.85571 79.6388 7.58774C80.4688 8.31978 80.885 9.37275 80.885 10.7457C80.885 12.1186 80.4733 13.0696 79.6498 13.7956C78.8264 14.5217 77.6718 14.8843 76.1861 14.8843H59.5543V11.864L59.5532 11.863ZM87.8906 4.13561H97.0697V14.8833H100.916V4.13561H110.051V1.11536H87.8906V4.13561Z" fill="currentColor"></path></svg>